<svg width="32" height="32" viewBox="0 0 32 32" fill="none" xmlns="http://www.w3.org/2000/svg">
  <rect width="32" height="32" rx="8" fill="#10B981"/>
  <path d="M8 12C8 10.8954 8.89543 10 10 10H22C23.1046 10 24 10.8954 24 12V20C24 21.1046 23.1046 22 22 22H10C8.89543 22 8 21.1046 8 20V12Z" fill="white"/>
  <circle cx="12" cy="16" r="2" fill="#10B981"/>
  <circle cx="20" cy="16" r="2" fill="#10B981"/>
  <path d="M16 8L18 12L16 16L14 12L16 8Z" fill="#10B981"/>
  <path d="M16 16L18 20L16 24L14 20L16 16Z" fill="#10B981"/>
</svg>
